# MagicaVoxel @ ephtracy

# material
mtllib Bag.mtl
usemtl palette

# normals
vn -1 0 0
vn 1 0 0
vn 0 0 1
vn 0 0 -1
vn 0 -1 0
vn 0 1 0

# texcoords
vt 0.912109 0.5
vt 0.916016 0.5
vt 0.962891 0.5
vt 0.982422 0.5

# verts
v -3 1 -2.5
v -3 1 -5.5
v -3 2 -4.5
v -3 2 -5.5
v -3 3 -5.5
v -3 3 -6.5
v -3 5 -4.5
v -3 5 -5.5
v -3 6 -3.5
v -3 6 -6.5
v -3 9 -2.5
v -3 9 -3.5
v -2 2 -5.5
v -2 2 -6.5
v -2 3 -5.5
v -2 3 -6.5
v 0 3 -3.5
v 0 3 -4.5
v 0 4 -3.5
v 0 4 -4.5
v 2 6 -2.5
v 2 6 -3.5
v 2 8 -2.5
v 2 8 -3.5
v -2 3 -3.5
v -2 3 -4.5
v -2 4 -3.5
v -2 4 -4.5
v -2 6 -2.5
v -2 6 -3.5
v -2 8 -2.5
v -2 8 -3.5
v 2 2 -5.5
v 2 2 -6.5
v 2 3 -5.5
v 2 3 -6.5
v 3 1 -2.5
v 3 1 -5.5
v 3 2 -4.5
v 3 2 -5.5
v 3 3 -5.5
v 3 3 -6.5
v 3 5 -4.5
v 3 5 -5.5
v 3 6 -3.5
v 3 6 -6.5
v 3 9 -2.5
v 3 9 -3.5
v -3 1 -2.5
v -3 9 -2.5
v -2 1 -2.5
v -2 6 -2.5
v -2 8 -2.5
v 2 1 -2.5
v 2 6 -2.5
v 2 8 -2.5
v 3 1 -2.5
v 3 9 -2.5
v -2 3 -4.5
v -2 4 -4.5
v 0 3 -4.5
v 0 4 -4.5
v -3 6 -3.5
v -3 9 -3.5
v -2 3 -3.5
v -2 4 -3.5
v -2 6 -3.5
v -2 8 -3.5
v 0 3 -3.5
v 0 4 -3.5
v 2 6 -3.5
v 2 8 -3.5
v 3 6 -3.5
v 3 9 -3.5
v -3 1 -5.5
v -3 2 -5.5
v -3 3 -5.5
v -2 1 -5.5
v -2 2 -5.5
v -2 3 -5.5
v 2 1 -5.5
v 2 2 -5.5
v 2 3 -5.5
v 3 1 -5.5
v 3 2 -5.5
v 3 3 -5.5
v -3 3 -6.5
v -3 6 -6.5
v -2 2 -6.5
v -2 3 -6.5
v -2 4 -6.5
v -2 6 -6.5
v -1 3 -6.5
v -1 4 -6.5
v 1 3 -6.5
v 1 4 -6.5
v 2 2 -6.5
v 2 3 -6.5
v 2 4 -6.5
v 2 6 -6.5
v 3 3 -6.5
v 3 6 -6.5
v -3 1 -2.5
v -2 1 -2.5
v 2 1 -2.5
v 3 1 -2.5
v -2 1 -3.5
v 2 1 -3.5
v -2 1 -4.5
v 2 1 -4.5
v -3 1 -5.5
v -2 1 -5.5
v 2 1 -5.5
v 3 1 -5.5
v -2 2 -5.5
v 2 2 -5.5
v -2 2 -6.5
v 2 2 -6.5
v -3 3 -5.5
v -2 3 -5.5
v 2 3 -5.5
v 3 3 -5.5
v -3 3 -6.5
v -2 3 -6.5
v 2 3 -6.5
v 3 3 -6.5
v -2 4 -3.5
v 0 4 -3.5
v -2 4 -4.5
v 0 4 -4.5
v -2 8 -2.5
v 2 8 -2.5
v -2 8 -3.5
v 2 8 -3.5
v -2 3 -3.5
v 0 3 -3.5
v -2 3 -4.5
v 0 3 -4.5
v -2 6 -2.5
v 2 6 -2.5
v -3 6 -3.5
v -2 6 -3.5
v 2 6 -3.5
v 3 6 -3.5
v -3 6 -6.5
v -2 6 -6.5
v 2 6 -6.5
v 3 6 -6.5
v -3 9 -2.5
v 3 9 -2.5
v -3 9 -3.5
v 3 9 -3.5

# faces
f 3/2/1 2/2/1 1/2/1
f 4/2/1 2/2/1 3/2/1
f 5/4/1 4/4/1 3/4/1
f 7/2/1 3/2/1 1/2/1
f 7/4/1 5/4/1 3/4/1
f 8/2/1 6/2/1 5/2/1
f 8/4/1 5/4/1 7/4/1
f 9/2/1 7/2/1 1/2/1
f 9/2/1 8/2/1 7/2/1
f 10/2/1 6/2/1 8/2/1
f 10/2/1 8/2/1 9/2/1
f 11/2/1 9/2/1 1/2/1
f 12/2/1 9/2/1 11/2/1
f 15/2/1 14/2/1 13/2/1
f 16/2/1 14/2/1 15/2/1
f 19/4/1 18/4/1 17/4/1
f 20/4/1 18/4/1 19/4/1
f 23/2/1 22/2/1 21/2/1
f 24/2/1 22/2/1 23/2/1
f 25/2/2 26/2/2 27/2/2
f 27/2/2 26/2/2 28/2/2
f 29/2/2 30/2/2 31/2/2
f 31/2/2 30/2/2 32/2/2
f 33/2/2 34/2/2 35/2/2
f 35/2/2 34/2/2 36/2/2
f 37/2/2 38/2/2 39/2/2
f 39/2/2 38/2/2 40/2/2
f 39/4/2 40/4/2 41/4/2
f 37/2/2 39/2/2 43/2/2
f 39/4/2 41/4/2 43/4/2
f 41/2/2 42/2/2 44/2/2
f 43/4/2 41/4/2 44/4/2
f 37/2/2 43/2/2 45/2/2
f 43/2/2 44/2/2 45/2/2
f 44/2/2 42/2/2 46/2/2
f 45/2/2 44/2/2 46/2/2
f 37/2/2 45/2/2 47/2/2
f 47/2/2 45/2/2 48/2/2
f 51/2/3 50/2/3 49/2/3
f 52/2/3 50/2/3 51/2/3
f 53/2/3 50/2/3 52/2/3
f 54/4/3 52/4/3 51/4/3
f 55/4/3 52/4/3 54/4/3
f 56/2/3 50/2/3 53/2/3
f 57/2/3 55/2/3 54/2/3
f 57/2/3 56/2/3 55/2/3
f 58/2/3 50/2/3 56/2/3
f 58/2/3 56/2/3 57/2/3
f 61/4/3 60/4/3 59/4/3
f 62/4/3 60/4/3 61/4/3
f 63/2/4 64/2/4 67/2/4
f 67/2/4 64/2/4 68/2/4
f 65/4/4 66/4/4 69/4/4
f 69/4/4 66/4/4 70/4/4
f 68/2/4 64/2/4 72/2/4
f 71/2/4 72/2/4 73/2/4
f 72/2/4 64/2/4 74/2/4
f 73/2/4 72/2/4 74/2/4
f 75/2/4 76/2/4 78/2/4
f 76/4/4 77/4/4 79/4/4
f 78/2/4 76/2/4 79/2/4
f 79/4/4 77/4/4 80/4/4
f 78/4/4 79/4/4 81/4/4
f 81/4/4 79/4/4 82/4/4
f 81/2/4 82/2/4 84/2/4
f 82/4/4 83/4/4 85/4/4
f 84/2/4 82/2/4 85/2/4
f 85/4/4 83/4/4 86/4/4
f 87/2/4 88/2/4 90/2/4
f 90/2/4 88/2/4 91/2/4
f 91/2/4 88/2/4 92/2/4
f 89/2/4 90/2/4 93/2/4
f 90/1/4 91/1/4 93/1/4
f 91/4/4 92/4/4 94/4/4
f 93/1/4 91/1/4 94/1/4
f 89/2/4 93/2/4 95/2/4
f 93/4/4 94/4/4 95/4/4
f 94/4/4 92/4/4 96/4/4
f 95/4/4 94/4/4 96/4/4
f 89/2/4 95/2/4 97/2/4
f 95/1/4 96/1/4 98/1/4
f 97/2/4 95/2/4 98/2/4
f 96/4/4 92/4/4 99/4/4
f 98/1/4 96/1/4 99/1/4
f 99/4/4 92/4/4 100/4/4
f 98/2/4 99/2/4 101/2/4
f 99/2/4 100/2/4 101/2/4
f 101/2/4 100/2/4 102/2/4
f 107/2/5 104/2/5 103/2/5
f 107/4/5 105/4/5 104/4/5
f 108/2/5 106/2/5 105/2/5
f 108/4/5 105/4/5 107/4/5
f 109/2/5 107/2/5 103/2/5
f 109/3/5 108/3/5 107/3/5
f 110/2/5 106/2/5 108/2/5
f 110/3/5 108/3/5 109/3/5
f 111/2/5 109/2/5 103/2/5
f 112/4/5 110/4/5 109/4/5
f 112/2/5 109/2/5 111/2/5
f 113/2/5 106/2/5 110/2/5
f 113/4/5 110/4/5 112/4/5
f 114/2/5 106/2/5 113/2/5
f 117/2/5 116/2/5 115/2/5
f 118/2/5 116/2/5 117/2/5
f 123/2/5 120/2/5 119/2/5
f 124/2/5 120/2/5 123/2/5
f 125/2/5 122/2/5 121/2/5
f 126/2/5 122/2/5 125/2/5
f 129/4/5 128/4/5 127/4/5
f 130/4/5 128/4/5 129/4/5
f 133/2/5 132/2/5 131/2/5
f 134/2/5 132/2/5 133/2/5
f 135/4/6 136/4/6 137/4/6
f 137/4/6 136/4/6 138/4/6
f 139/4/6 140/4/6 142/4/6
f 142/4/6 140/4/6 143/4/6
f 141/2/6 142/2/6 145/2/6
f 142/4/6 143/4/6 146/4/6
f 145/2/6 142/2/6 146/2/6
f 143/2/6 144/2/6 147/2/6
f 146/4/6 143/4/6 147/4/6
f 147/2/6 144/2/6 148/2/6
f 149/2/6 150/2/6 151/2/6
f 151/2/6 150/2/6 152/2/6
